<svg width="120" height="120" viewBox="0 0 120 120" fill="none" xmlns="http://www.w3.org/2000/svg">
<path d="M20.5641 83.0557L19.5412 81.1686L23.4861 77.2575L23.447 77.1853L18.0166 78.3561L17.0003 76.481L24.7648 75.2269L25.8464 77.2222L20.5641 83.0557Z" fill="#FFC246"/>
<path d="M28.9952 81.6452L30.2994 83.1922L24.6233 87.9772L23.3191 86.4302L28.9952 81.6452ZM21.7313 87.6436C22.1599 87.2823 22.8369 87.3642 23.2291 87.8294C23.6168 88.2893 23.583 88.9704 23.1501 89.3265C22.7154 89.7018 22.0436 89.6155 21.6507 89.16C21.2637 88.6904 21.2923 88.0137 21.7313 87.6436Z" fill="#FFC246"/>
<path d="M36.1757 88.3589C37.6113 89.4972 38.0288 90.9564 37.4047 92.2138L35.8898 91.0218C36.0087 90.55 35.8079 90.0092 35.2695 89.5769C34.4434 88.9355 33.4953 89.0681 32.8021 89.9492L36.7883 93.0857L36.4332 93.537C34.8692 95.5247 32.8995 95.5406 31.3684 94.3359C29.66 92.9916 29.5075 90.8971 30.929 89.1016C32.3778 87.2493 34.3825 86.9566 36.1757 88.3589ZM32.0158 90.9484C31.5197 91.6453 31.6042 92.5991 32.3391 93.1686C33.044 93.732 33.9344 93.6063 34.4978 92.9013L32.0158 90.9484Z" fill="#FFC246"/>
<path d="M42.4948 92.474L44.481 93.2878L43.8818 98.1397L43.9703 98.176L46.9479 94.2987L48.9215 95.1074L47.9917 102.749L46.094 101.972L46.9234 96.9186L46.8602 96.8927L43.8295 101.044L41.9698 100.282L42.7463 95.1775L42.6831 95.1516L39.7053 99.3538L37.8076 98.5763L42.4948 92.474Z" fill="#FFC246"/>
<path d="M62.4373 96.2092C63.6447 96.1309 64.3038 96.7868 64.6234 97.3826L64.7189 97.3764L64.6418 96.1895L66.6337 96.0602L67.2748 105.938L65.2556 106.069L65.0148 102.358L64.9466 102.362C64.7195 102.98 64.1738 103.755 62.9323 103.836C61.2951 103.942 59.8348 102.763 59.6701 100.225C59.5094 97.7488 60.7455 96.3191 62.4373 96.2092ZM61.7448 100.104C61.8216 101.394 62.4253 102.252 63.4554 102.185C64.4718 102.119 64.9827 101.23 64.8963 99.8995C64.8095 98.5625 64.1794 97.7197 63.1694 97.7784C62.1466 97.8516 61.6529 98.7948 61.7448 100.104Z" fill="#FFC246"/>
<path d="M73.1269 94.018C74.871 93.4573 76.3162 93.9213 77.0146 95.1389L75.1817 95.7358C74.8556 95.3746 74.2944 95.2411 73.6358 95.4483C72.6434 95.7787 72.2267 96.6405 72.5739 97.7065L77.3968 96.1359L77.5747 96.6819C78.3578 99.0869 77.2763 100.733 75.4238 101.336C73.3568 102.01 71.5309 100.972 70.8283 98.7926C70.0936 96.5587 70.9645 94.7294 73.1269 94.018ZM72.9676 98.9155C73.2712 99.7153 74.1111 100.175 74.9929 99.8807C75.853 99.6078 76.2435 98.7977 75.9706 97.9376L72.9676 98.9155Z" fill="#FFC246"/>
<path d="M86.0599 96.0484L84.8551 96.7507L85.7502 98.2862L84.0021 99.3052L83.107 97.7697L82.2211 98.2861L81.4568 96.9751L82.3427 96.4587L80.3735 93.0806C79.6353 91.8413 80.167 90.7718 81.4343 90.0409C81.862 89.7837 82.1956 89.6367 82.4018 89.556L83.2074 90.938C82.9845 91.0442 82.667 91.2055 82.4899 91.3088C82.1424 91.5272 81.9608 91.7992 82.2662 92.3096L84.0908 95.4396L85.2956 94.7373L86.0599 96.0484Z" fill="#FFC246"/>
<path d="M86.1628 89.3825C85.1761 88.2933 85.4405 87.0326 86.4944 86.0781C87.302 85.3304 88.1541 85.2088 88.8828 85.4687L88.9232 85.4318L88.2312 84.6751L89.6437 83.3834L93.0205 87.0762C94.2342 88.3933 93.5932 89.9614 92.3976 91.0547C90.9447 92.3832 89.4347 92.3932 88.4766 91.5278L89.8992 90.2269C90.3213 90.5264 90.8467 90.4628 91.3608 90.0019C91.9162 89.4848 91.9891 88.9365 91.5743 88.4728L91.1684 88.0289C90.9271 88.231 90.1582 88.8692 89.7417 89.2038C88.6274 90.1023 87.2843 90.5988 86.1628 89.3825ZM87.6325 88.1128C88.02 88.5365 88.5739 88.4839 89.135 88.0541C89.4057 87.8436 90.0787 87.2931 90.3149 87.0956L89.9505 86.6971C89.425 86.1123 88.5449 86.102 87.8592 86.7197C87.3846 87.163 87.2496 87.6941 87.6325 88.1128Z" fill="#FFC246"/>
<path d="M91.7148 80.5969L92.901 78.9576L98.9155 83.3094L97.7294 84.9487L91.7148 80.5969ZM99.2905 86.1963C98.8363 85.8678 98.7523 85.191 99.1089 84.6981C99.4615 84.2107 100.131 84.0789 100.581 84.413C101.05 84.7441 101.129 85.4169 100.781 85.9082C100.419 86.3971 99.7557 86.5329 99.2905 86.1963Z" fill="#FFC246"/>
<path d="M105.022 77.5721L104.125 79.3855L95.2538 74.9939L96.1515 73.1805L105.022 77.5721Z" fill="#FFC246"/>
<path d="M21.2038 41.6045L22.0497 39.9027C20.74 39.3739 19.4269 40.019 18.5933 41.6963C17.7414 43.4104 17.9926 44.9017 19.2689 45.5284C20.2514 46.0243 21.2228 45.698 22.1036 44.5556L22.8716 43.5632C23.3105 43.0027 23.6647 42.8276 24.0075 42.998C24.436 43.211 24.4802 43.7825 24.1577 44.4467C23.82 45.1109 23.3407 45.3994 22.7777 45.2265L21.8711 47.0507C23.2449 47.5427 24.5701 46.8884 25.4677 45.0978C26.3409 43.3256 26.0497 41.7152 24.7427 41.058C23.7847 40.5895 22.8989 40.9279 21.9876 42.0857L21.1525 43.1515C20.7106 43.7182 20.3623 43.8352 20.0654 43.68C19.6584 43.4853 19.605 42.9015 19.891 42.3108C20.1983 41.7078 20.6991 41.4529 21.2038 41.6045Z" fill="#FFC246"/>
<path d="M30.7941 37.3144C32.0508 35.799 31.9572 34.1087 30.7234 32.9626L29.5053 34.4212C30.0254 35.0248 30.029 35.7137 29.5733 36.2593C28.9424 37.0149 27.9096 36.9718 26.8078 36.0516C25.7269 35.149 25.5144 34.1343 26.1314 33.3849C26.6274 32.8016 27.3224 32.7586 27.9627 33.133L29.1808 31.6744C27.8218 30.6462 26.134 30.9289 24.9071 32.398C23.4655 34.1243 23.7679 36.1937 25.5142 37.6432C27.2465 39.0988 29.3297 39.0573 30.7941 37.3144Z" fill="#FFC246"/>
<path d="M34.8836 33.0929L36.4839 31.8547L33.8988 28.5135C33.337 27.7986 33.4832 26.8816 34.2077 26.3211C34.4294 26.1496 34.7668 25.949 34.9559 25.8805L33.8515 24.4532C33.6858 24.5295 33.4637 24.6668 33.3015 24.7923C32.6418 25.3027 32.3928 26.109 32.7383 26.9912L32.6734 27.0414L31.887 26.025L30.3407 27.2214L34.8836 33.0929Z" fill="#FFC246"/>
<path d="M44.2551 27.4602C46.2937 26.5104 46.9142 24.5291 45.9566 22.4413C44.9896 20.3655 43.0784 19.5545 41.0369 20.4981C39.0016 21.4389 38.375 23.4231 39.342 25.4989C40.2996 27.5867 42.217 28.3948 44.2551 27.4602ZM41.2036 24.6384C40.6557 23.4532 40.7358 22.3393 41.6975 21.8947C42.6345 21.4616 43.5411 22.1195 44.0827 23.3075C44.6339 24.4836 44.5419 25.588 43.6078 26.0273C42.6432 26.4657 41.7485 25.8174 41.2036 24.6384Z" fill="#FFC246"/>
<path d="M50.2797 15.0505L48.3075 15.5029L50.5209 25.1507L52.4931 24.6983L50.2797 15.0505Z" fill="#FFC246"/>
<path d="M58.1657 14.1135L56.1463 14.2411L56.7709 24.1199L58.7903 23.9922L58.1657 14.1135Z" fill="#FFC246"/>
<path d="M71.7862 25.9501C72.9397 26.3154 73.7367 25.8365 74.1897 25.3345L74.2809 25.3634L73.9218 26.4974L75.8247 27.1L78.8132 17.6635L76.8842 17.0526L75.7615 20.5978L75.6963 20.5772C75.6238 19.9232 75.2797 19.0398 74.0936 18.6642C72.5295 18.1689 70.8292 18.9641 70.0615 21.3884C69.3123 23.7541 70.17 25.4383 71.7862 25.9501ZM72.0467 22.0028C72.4303 20.769 73.222 20.0804 74.2061 20.3921C75.1771 20.6996 75.46 21.6855 75.0576 22.9563C74.6531 24.2336 73.8394 24.9009 72.8728 24.602C71.8973 24.2859 71.644 23.252 72.0467 22.0028Z" fill="#FFC246"/>
<path d="M81.1776 30.4166C83.0876 31.604 85.0857 31.0402 86.3102 29.0969C87.5194 27.1522 87.1534 25.1085 85.2471 23.9152C83.3465 22.7256 81.3426 23.2858 80.1333 25.2306C78.9089 27.1739 79.2806 29.2211 81.1776 30.4166ZM81.8716 26.3187C82.5644 25.2119 83.5408 24.6699 84.4389 25.232C85.3139 25.7797 85.2588 26.8985 84.5602 28.0016C83.8769 29.1061 82.902 29.633 82.0234 29.0911C81.1289 28.5231 81.1825 27.4196 81.8716 26.3187Z" fill="#FFC246"/>
<path d="M87.4454 35.1767L88.8799 36.7735L93.2476 34.5775L93.3116 34.6487L90.6615 38.7568L92.0868 40.3435L98.9708 36.8978L97.6004 35.3722L93.1206 37.8527L93.0749 37.8018L95.9649 33.5516L94.6219 32.0565L90.0761 34.5044L90.0304 34.4535L92.9865 30.2359L91.616 28.7103L87.4454 35.1767Z" fill="#FFC246"/>
<path d="M98.6779 43.5063C99.5533 43.0712 100.32 43.339 100.694 44.0919C101.068 44.8449 100.798 45.529 99.9805 45.9428L96.0627 47.8901L96.9572 49.6898L101.193 47.5844C102.745 46.8207 103.244 45.4432 102.553 44.0536C102.063 43.068 101.227 42.5983 100.312 42.6786L100.276 42.6052L101.439 42.0271L100.581 40.3008L93.933 43.605L94.8336 45.417L98.6779 43.5063Z" fill="#FFC246"/>
<circle cx="102.16" cy="60.5102" r="1.56347" fill="#FFC246"/>
<circle cx="19.8171" cy="60.5102" r="1.56347" fill="#FFC246"/>
<mask id="mask0_1576_10298" style="mask-type:alpha" maskUnits="userSpaceOnUse" x="17" y="14" width="89" height="93">
<path d="M20.5641 83.0557L19.5412 81.1686L23.4861 77.2575L23.447 77.1853L18.0166 78.3561L17.0003 76.481L24.7648 75.2269L25.8464 77.2222L20.5641 83.0557Z" fill="black"/>
<path d="M28.9952 81.6452L30.2994 83.1922L24.6233 87.9772L23.3191 86.4302L28.9952 81.6452ZM21.7313 87.6436C22.1599 87.2823 22.8369 87.3642 23.2291 87.8294C23.6168 88.2893 23.583 88.9704 23.1501 89.3265C22.7154 89.7018 22.0436 89.6155 21.6507 89.16C21.2637 88.6904 21.2923 88.0137 21.7313 87.6436Z" fill="black"/>
<path d="M36.1757 88.3589C37.6113 89.4972 38.0288 90.9564 37.4047 92.2138L35.8898 91.0218C36.0087 90.55 35.8079 90.0092 35.2695 89.5769C34.4434 88.9355 33.4953 89.0681 32.8021 89.9492L36.7883 93.0857L36.4332 93.537C34.8692 95.5247 32.8995 95.5406 31.3684 94.3359C29.66 92.9916 29.5075 90.8971 30.929 89.1016C32.3778 87.2493 34.3825 86.9566 36.1757 88.3589ZM32.0158 90.9484C31.5197 91.6453 31.6042 92.5991 32.3391 93.1686C33.044 93.732 33.9344 93.6063 34.4978 92.9013L32.0158 90.9484Z" fill="black"/>
<path d="M42.4948 92.474L44.481 93.2878L43.8818 98.1397L43.9703 98.176L46.9479 94.2987L48.9215 95.1074L47.9917 102.749L46.094 101.972L46.9234 96.9186L46.8602 96.8927L43.8295 101.044L41.9698 100.282L42.7463 95.1775L42.6831 95.1516L39.7053 99.3538L37.8076 98.5763L42.4948 92.474Z" fill="black"/>
<path d="M62.4373 96.2092C63.6447 96.1309 64.3038 96.7868 64.6234 97.3826L64.7189 97.3764L64.6418 96.1895L66.6337 96.0602L67.2748 105.938L65.2556 106.069L65.0148 102.358L64.9466 102.362C64.7195 102.98 64.1738 103.755 62.9323 103.836C61.2951 103.942 59.8348 102.763 59.6701 100.225C59.5094 97.7488 60.7455 96.3191 62.4373 96.2092ZM61.7448 100.104C61.8216 101.394 62.4253 102.252 63.4554 102.185C64.4718 102.119 64.9827 101.23 64.8963 99.8995C64.8095 98.5625 64.1794 97.7197 63.1694 97.7784C62.1466 97.8516 61.6529 98.7948 61.7448 100.104Z" fill="black"/>
<path d="M73.1269 94.018C74.871 93.4573 76.3162 93.9213 77.0146 95.1389L75.1817 95.7358C74.8556 95.3746 74.2944 95.2411 73.6358 95.4483C72.6434 95.7787 72.2267 96.6405 72.5739 97.7065L77.3968 96.1359L77.5747 96.6819C78.3578 99.0869 77.2763 100.733 75.4238 101.336C73.3568 102.01 71.5309 100.972 70.8283 98.7926C70.0936 96.5587 70.9645 94.7294 73.1269 94.018ZM72.9676 98.9155C73.2712 99.7153 74.1111 100.175 74.9929 99.8807C75.853 99.6078 76.2435 98.7977 75.9706 97.9376L72.9676 98.9155Z" fill="black"/>
<path d="M86.0599 96.0484L84.8551 96.7507L85.7502 98.2862L84.0021 99.3052L83.107 97.7697L82.2211 98.2861L81.4568 96.9751L82.3427 96.4587L80.3735 93.0806C79.6353 91.8413 80.167 90.7718 81.4343 90.0409C81.862 89.7837 82.1956 89.6367 82.4018 89.556L83.2074 90.938C82.9845 91.0442 82.667 91.2055 82.4899 91.3088C82.1424 91.5272 81.9608 91.7992 82.2662 92.3096L84.0908 95.4396L85.2956 94.7373L86.0599 96.0484Z" fill="black"/>
<path d="M86.1628 89.3825C85.1761 88.2933 85.4405 87.0326 86.4944 86.0781C87.302 85.3304 88.1541 85.2088 88.8828 85.4687L88.9232 85.4318L88.2312 84.6751L89.6437 83.3834L93.0205 87.0762C94.2342 88.3933 93.5932 89.9614 92.3976 91.0547C90.9447 92.3832 89.4347 92.3932 88.4766 91.5278L89.8992 90.2269C90.3213 90.5264 90.8467 90.4628 91.3608 90.0019C91.9162 89.4848 91.9891 88.9365 91.5743 88.4728L91.1684 88.0289C90.9271 88.231 90.1582 88.8692 89.7417 89.2038C88.6274 90.1023 87.2843 90.5988 86.1628 89.3825ZM87.6325 88.1128C88.02 88.5365 88.5739 88.4839 89.135 88.0541C89.4057 87.8436 90.0787 87.2931 90.3149 87.0956L89.9505 86.6971C89.425 86.1123 88.5449 86.102 87.8592 86.7197C87.3846 87.163 87.2496 87.6941 87.6325 88.1128Z" fill="black"/>
<path d="M91.7148 80.5969L92.901 78.9576L98.9155 83.3094L97.7294 84.9487L91.7148 80.5969ZM99.2905 86.1963C98.8363 85.8678 98.7523 85.191 99.1089 84.6981C99.4615 84.2107 100.131 84.0789 100.581 84.413C101.05 84.7441 101.129 85.4169 100.781 85.9082C100.419 86.3971 99.7557 86.5329 99.2905 86.1963Z" fill="black"/>
<path d="M105.022 77.5721L104.125 79.3855L95.2538 74.9939L96.1515 73.1805L105.022 77.5721Z" fill="black"/>
<path d="M21.2038 41.6045L22.0497 39.9027C20.74 39.3739 19.4269 40.019 18.5933 41.6963C17.7414 43.4104 17.9926 44.9017 19.2689 45.5284C20.2514 46.0243 21.2228 45.698 22.1036 44.5556L22.8716 43.5632C23.3105 43.0027 23.6647 42.8276 24.0075 42.998C24.436 43.211 24.4802 43.7825 24.1577 44.4467C23.82 45.1109 23.3407 45.3994 22.7777 45.2265L21.8711 47.0507C23.2449 47.5427 24.5701 46.8884 25.4677 45.0978C26.3409 43.3256 26.0497 41.7152 24.7427 41.058C23.7847 40.5895 22.8989 40.9279 21.9876 42.0857L21.1525 43.1515C20.7106 43.7182 20.3623 43.8352 20.0654 43.68C19.6584 43.4853 19.605 42.9015 19.891 42.3108C20.1983 41.7078 20.6991 41.4529 21.2038 41.6045Z" fill="black"/>
<path d="M30.7941 37.3144C32.0508 35.799 31.9572 34.1087 30.7234 32.9626L29.5053 34.4212C30.0254 35.0248 30.029 35.7137 29.5733 36.2593C28.9424 37.0149 27.9096 36.9718 26.8078 36.0516C25.7269 35.149 25.5144 34.1343 26.1314 33.3849C26.6274 32.8016 27.3224 32.7586 27.9627 33.133L29.1808 31.6744C27.8218 30.6462 26.134 30.9289 24.9071 32.398C23.4655 34.1243 23.7679 36.1937 25.5142 37.6432C27.2465 39.0988 29.3297 39.0573 30.7941 37.3144Z" fill="black"/>
<path d="M34.8836 33.0929L36.4839 31.8547L33.8988 28.5135C33.337 27.7986 33.4832 26.8816 34.2077 26.3211C34.4294 26.1496 34.7668 25.949 34.9559 25.8805L33.8515 24.4532C33.6858 24.5295 33.4637 24.6668 33.3015 24.7923C32.6418 25.3027 32.3928 26.109 32.7383 26.9912L32.6734 27.0414L31.887 26.025L30.3407 27.2214L34.8836 33.0929Z" fill="black"/>
<path d="M44.2551 27.4602C46.2937 26.5104 46.9142 24.5291 45.9566 22.4413C44.9896 20.3655 43.0784 19.5545 41.0369 20.4981C39.0016 21.4389 38.375 23.4231 39.342 25.4989C40.2996 27.5867 42.217 28.3948 44.2551 27.4602ZM41.2036 24.6384C40.6557 23.4532 40.7358 22.3393 41.6975 21.8947C42.6345 21.4616 43.5411 22.1195 44.0827 23.3075C44.6339 24.4836 44.5419 25.588 43.6078 26.0273C42.6432 26.4657 41.7485 25.8174 41.2036 24.6384Z" fill="black"/>
<path d="M50.2797 15.0505L48.3075 15.5029L50.5209 25.1507L52.4931 24.6983L50.2797 15.0505Z" fill="black"/>
<path d="M58.1657 14.1135L56.1463 14.2411L56.7709 24.1199L58.7903 23.9922L58.1657 14.1135Z" fill="black"/>
<path d="M71.7862 25.9501C72.9397 26.3154 73.7367 25.8365 74.1897 25.3345L74.2809 25.3634L73.9218 26.4974L75.8247 27.1L78.8132 17.6635L76.8842 17.0526L75.7615 20.5978L75.6963 20.5772C75.6238 19.9232 75.2797 19.0398 74.0936 18.6642C72.5295 18.1689 70.8292 18.9641 70.0615 21.3884C69.3123 23.7541 70.17 25.4383 71.7862 25.9501ZM72.0467 22.0028C72.4303 20.769 73.222 20.0804 74.2061 20.3921C75.1771 20.6996 75.46 21.6855 75.0576 22.9563C74.6531 24.2336 73.8394 24.9009 72.8728 24.602C71.8973 24.2859 71.644 23.252 72.0467 22.0028Z" fill="black"/>
<path d="M81.1776 30.4166C83.0876 31.604 85.0857 31.0402 86.3102 29.0969C87.5194 27.1522 87.1534 25.1085 85.2471 23.9152C83.3465 22.7256 81.3426 23.2858 80.1333 25.2306C78.9089 27.1739 79.2806 29.2211 81.1776 30.4166ZM81.8716 26.3187C82.5644 25.2119 83.5408 24.6699 84.4389 25.232C85.3139 25.7797 85.2588 26.8985 84.5602 28.0016C83.8769 29.1061 82.902 29.633 82.0234 29.0911C81.1289 28.5231 81.1825 27.4196 81.8716 26.3187Z" fill="black"/>
<path d="M87.4454 35.1767L88.8799 36.7735L93.2476 34.5775L93.3116 34.6487L90.6615 38.7568L92.0868 40.3435L98.9708 36.8978L97.6004 35.3722L93.1206 37.8527L93.0749 37.8018L95.9649 33.5516L94.6219 32.0565L90.0761 34.5044L90.0304 34.4535L92.9865 30.2359L91.616 28.7103L87.4454 35.1767Z" fill="black"/>
<path d="M98.6779 43.5063C99.5533 43.0712 100.32 43.339 100.694 44.0919C101.068 44.8449 100.798 45.529 99.9805 45.9428L96.0627 47.8901L96.9572 49.6898L101.193 47.5844C102.745 46.8207 103.244 45.4432 102.553 44.0536C102.063 43.068 101.227 42.5983 100.312 42.6786L100.276 42.6052L101.439 42.0271L100.581 40.3008L93.933 43.605L94.8336 45.417L98.6779 43.5063Z" fill="black"/>
<circle cx="102.16" cy="60.5102" r="1.56347" fill="black"/>
<circle cx="19.8171" cy="60.5102" r="1.56347" fill="black"/>
</mask>
<g mask="url(#mask0_1576_10298)">
<path d="M-65 -26H132V62H-65V-26Z" fill="#FFC246"/>
</g>
</svg>
