<svg width="246" height="94" viewBox="0 0 246 94" fill="none" xmlns="http://www.w3.org/2000/svg">
<g clip-path="url(#clip0_1570_9302)">
<path d="M51.6165 0.853516L58.7452 13.0604L42.93 41.2778L35.5059 28.5703L51.6165 0.853516Z" fill="url(#paint0_linear_1570_9302)"/>
<path d="M32.0179 28.6079L48.4394 0H47.2193L30.7979 28.6156L50.2503 61.8119H51.4743L32.0179 28.6079Z" fill="#A9A9A9"/>
<path d="M46.2641 0H45.0479L28.6226 28.6156L48.0751 61.8119H49.299L29.8426 28.6079L46.2641 0Z" fill="#A9A9A9"/>
<path d="M44.0889 0H42.8726L26.4473 28.6156L45.8998 61.8119H47.1276L27.6674 28.6079L44.0889 0Z" fill="#A9A9A9"/>
<path d="M41.9169 0H40.6969L24.2754 28.6156L43.728 61.8119H44.9518L25.4954 28.6079L41.9169 0Z" fill="#A9A9A9"/>
<path d="M39.7417 0H38.5255L22.1001 28.6156L41.5527 61.8119H42.7766L23.3203 28.6079L39.7417 0Z" fill="#A9A9A9"/>
<path d="M37.566 0H36.3497L19.9243 28.6156L39.3769 61.8119H40.6047L21.1445 28.6079L37.566 0Z" fill="#A9A9A9"/>
<path d="M35.3946 0H34.1744L17.7529 28.6156L37.2055 61.8119H38.4295L18.9731 28.6079L35.3946 0Z" fill="#A9A9A9"/>
<path d="M30.6867 0H16.4253L0 28.6156L17.0046 57.8947L24.0451 45.3124L14.2614 28.6156L30.6867 0Z" fill="black"/>
<path d="M111.378 10.2275H101.959V51.5847H111.378V10.2275Z" fill="black"/>
<path d="M78.9076 43.5871V10.2275H69.4883V51.5847H69.657H78.9076H97.4431V43.5871H78.9076Z" fill="black"/>
<path d="M143.906 18.2252V10.2275H116.796H115.89V51.5847H125.31V34.6945H141.857V26.6968H125.31V18.2252H143.906Z" fill="black"/>
<path d="M217.358 10.2275H208.016L198.109 27.1822L188.206 10.2275H178.864L193.202 34.7741V51.5847H202.622V35.4529L217.358 10.2275Z" fill="black"/>
<path d="M175.859 14.1442C171.632 10.6289 165.216 9.81735 160.136 9.82873H148.419V51.9899H157.838V38.0233H160.132C160.159 38.0233 160.183 38.0233 160.21 38.0233C165.274 38.0233 171.65 37.2004 175.855 33.7041C178.764 31.2847 180.303 27.9021 180.303 23.9242C180.303 19.9462 178.764 16.5636 175.855 14.1442H175.859ZM157.835 30.3025V18.1866C157.835 18.1866 170.63 16.2753 170.63 24.2427C170.63 32.2099 157.835 30.2987 157.835 30.2987V30.3025Z" fill="black"/>
<path d="M237.482 28.175L232.145 25.9451L231.843 25.8276C228.228 24.4131 226.179 23.4992 226.179 21.1936C226.179 18.888 228.148 17.5114 231.443 17.5114C234.474 17.5114 237.022 18.4936 239.707 20.693L240.142 21.0495L244.921 15.1868L244.573 14.8379C241.208 11.4592 236.423 9.51758 231.439 9.51758C222.976 9.51758 216.829 14.6332 216.829 21.6789C216.829 28.1256 221.495 31.3869 225.404 32.9834L231.224 35.4256C234.85 36.9424 236.595 37.7767 236.595 40.1847C236.595 42.7671 234.436 44.2461 230.672 44.2461C227.395 44.2461 223.678 42.6382 220.727 39.942L220.297 39.5476L214.925 45.9184L215.302 46.2748C219.339 50.0973 224.878 52.2892 230.511 52.2892C239.631 52.2892 246 47.0636 246 39.5855C246 34.1627 243.292 30.5336 237.479 28.1712L237.482 28.175Z" fill="black"/>
</g>
<path d="M65.345 89H67.271L68.639 83.762C68.891 82.826 69.089 81.908 69.305 80.918H69.395C69.629 81.908 69.809 82.808 70.061 83.726L71.483 89H73.463L76.091 79.226H74.543L73.103 84.878C72.887 85.814 72.707 86.696 72.491 87.614H72.419C72.185 86.696 71.969 85.814 71.735 84.878L70.205 79.226H68.603L67.091 84.878C66.839 85.796 66.641 86.696 66.425 87.614H66.335C66.155 86.696 65.957 85.814 65.759 84.878L64.301 79.226H62.627L65.345 89ZM78.8767 89H80.8027L82.1707 83.762C82.4227 82.826 82.6207 81.908 82.8367 80.918H82.9267C83.1607 81.908 83.3407 82.808 83.5927 83.726L85.0147 89H86.9947L89.6227 79.226H88.0747L86.6347 84.878C86.4187 85.814 86.2387 86.696 86.0227 87.614H85.9507C85.7167 86.696 85.5007 85.814 85.2667 84.878L83.7367 79.226H82.1347L80.6227 84.878C80.3707 85.796 80.1727 86.696 79.9567 87.614H79.8667C79.6867 86.696 79.4887 85.814 79.2907 84.878L77.8327 79.226H76.1587L78.8767 89ZM92.4083 89H94.3343L95.7023 83.762C95.9543 82.826 96.1523 81.908 96.3683 80.918H96.4583C96.6923 81.908 96.8723 82.808 97.1243 83.726L98.5463 89H100.526L103.154 79.226H101.606L100.166 84.878C99.9503 85.814 99.7703 86.696 99.5543 87.614H99.4823C99.2483 86.696 99.0323 85.814 98.7983 84.878L97.2683 79.226H95.6663L94.1543 84.878C93.9023 85.796 93.7043 86.696 93.4883 87.614H93.3983C93.2183 86.696 93.0203 85.814 92.8223 84.878L91.3643 79.226H89.6903L92.4083 89ZM104.429 89.234C105.077 89.234 105.617 88.73 105.617 87.992C105.617 87.236 105.077 86.714 104.429 86.714C103.781 86.714 103.241 87.236 103.241 87.992C103.241 88.73 103.781 89.234 104.429 89.234ZM109.421 89.234C109.871 89.234 110.141 89.18 110.375 89.09L110.141 87.83C109.961 87.866 109.889 87.866 109.799 87.866C109.547 87.866 109.331 87.668 109.331 87.164V74.672H107.693V87.056C107.693 88.442 108.197 89.234 109.421 89.234ZM111.926 89H113.564V79.226H111.926V89ZM112.754 77.21C113.402 77.21 113.852 76.778 113.852 76.112C113.852 75.482 113.402 75.05 112.754 75.05C112.106 75.05 111.656 75.482 111.656 76.112C111.656 76.778 112.106 77.21 112.754 77.21ZM116.253 89H117.891V80.558H119.961V79.226H117.891V77.678C117.891 76.418 118.341 75.752 119.277 75.752C119.619 75.752 120.015 75.842 120.375 76.004L120.735 74.762C120.285 74.564 119.691 74.438 119.097 74.438C117.153 74.438 116.253 75.68 116.253 77.66V79.226L114.921 79.316V80.558H116.253V89ZM120.936 93.122H122.574V89.81L122.538 88.1C123.42 88.82 124.356 89.234 125.238 89.234C127.488 89.234 129.486 87.308 129.486 83.96C129.486 80.954 128.118 78.974 125.598 78.974C124.464 78.974 123.366 79.622 122.484 80.342H122.43L122.286 79.226H120.936V93.122ZM124.968 87.866C124.32 87.866 123.456 87.596 122.574 86.84V81.71C123.528 80.828 124.374 80.36 125.202 80.36C127.056 80.36 127.776 81.818 127.776 83.978C127.776 86.408 126.588 87.866 124.968 87.866ZM131.29 93.212C133.234 93.212 134.26 91.736 134.926 89.81L138.616 79.226H137.014L135.268 84.662C134.998 85.526 134.71 86.516 134.44 87.398H134.35C134.044 86.516 133.702 85.508 133.414 84.662L131.416 79.226H129.706L133.63 89.018L133.414 89.756C133.018 90.962 132.316 91.862 131.2 91.862C130.948 91.862 130.66 91.772 130.462 91.7L130.138 93.014C130.444 93.14 130.822 93.212 131.29 93.212ZM142.171 89.234C144.475 89.234 145.735 87.92 145.735 86.336C145.735 84.482 144.169 83.906 142.747 83.366C141.649 82.952 140.641 82.61 140.641 81.674C140.641 80.918 141.217 80.27 142.459 80.27C143.323 80.27 144.007 80.63 144.673 81.134L145.465 80.072C144.709 79.478 143.647 78.974 142.441 78.974C140.317 78.974 139.057 80.198 139.057 81.746C139.057 83.402 140.551 84.068 141.919 84.572C142.999 84.986 144.151 85.418 144.151 86.426C144.151 87.272 143.521 87.956 142.225 87.956C141.055 87.956 140.173 87.488 139.327 86.804L138.517 87.884C139.453 88.658 140.785 89.234 142.171 89.234ZM147.981 89.234C148.629 89.234 149.169 88.73 149.169 87.992C149.169 87.236 148.629 86.714 147.981 86.714C147.333 86.714 146.793 87.236 146.793 87.992C146.793 88.73 147.333 89.234 147.981 89.234ZM154.868 89.234C156.038 89.234 157.154 88.784 158.036 87.992L157.316 86.894C156.704 87.452 155.912 87.866 155.012 87.866C153.212 87.866 151.988 86.372 151.988 84.122C151.988 81.872 153.284 80.342 155.066 80.342C155.84 80.342 156.434 80.702 157.01 81.206L157.856 80.126C157.154 79.514 156.272 78.974 154.994 78.974C152.492 78.974 150.278 80.864 150.278 84.122C150.278 87.362 152.276 89.234 154.868 89.234ZM162.633 89.234C165.027 89.234 167.169 87.362 167.169 84.122C167.169 80.864 165.027 78.974 162.633 78.974C160.239 78.974 158.097 80.864 158.097 84.122C158.097 87.362 160.239 89.234 162.633 89.234ZM162.633 87.866C160.941 87.866 159.807 86.372 159.807 84.122C159.807 81.872 160.941 80.342 162.633 80.342C164.325 80.342 165.477 81.872 165.477 84.122C165.477 86.372 164.325 87.866 162.633 87.866ZM168.851 89H170.489V81.908C171.389 80.9 172.217 80.414 172.955 80.414C174.197 80.414 174.773 81.188 174.773 83.024V89H176.411V81.908C177.329 80.9 178.121 80.414 178.877 80.414C180.119 80.414 180.695 81.188 180.695 83.024V89H182.333V82.808C182.333 80.306 181.379 78.974 179.363 78.974C178.175 78.974 177.149 79.748 176.141 80.846C175.745 79.694 174.935 78.974 173.441 78.974C172.271 78.974 171.245 79.712 170.399 80.648H170.345L170.201 79.226H168.851V89Z" fill="black"/>
<defs>
<linearGradient id="paint0_linear_1570_9302" x1="43.1641" y1="-0.769523" x2="49.8779" y2="36.6752" gradientUnits="userSpaceOnUse">
<stop stop-color="#36FE9E"/>
<stop offset="0.21" stop-color="#33D386"/>
<stop offset="0.69" stop-color="#2E674C"/>
<stop offset="0.95" stop-color="#2B2B2B"/>
</linearGradient>
<clipPath id="clip0_1570_9302">
<rect width="246" height="62" fill="white"/>
</clipPath>
</defs>
</svg>
